PathFileType	4	(X/Y/Z)	Patient4_TMGait_0pt2_03_left_17.trc.trc
DataRate	CameraRate	NumFrames	NumMarkers	Units	OrigDataRate	OrigDataStartFrame	OrigNumFrames
47.138047138047	47.138047138047	5	33	mm	47.138047138047	36	       141
Frame#	Time	Sacral			L.Shoulder			Chest			R.Shoulder			Neck			R.ASIS			L.ASIS			R.Thigh.Superior			R.Thigh.Lateral			R.Thigh.Inferior			R.Patella			L.Thigh.Superior			L.Thigh.Lateral			L.Thigh.Inferior			L.Patella			L.Shank.Superior			L.Shank.Lateral			L.Shank.Inferior			R.Shank.Superior			R.Shank.Lateral			R.Shank.Inferior			R.Heel			R.Midfoot.Superior			R.Midfoot.Lateral			R.Toe			L.Heel			L.Midfoot.Lateral			L.Midfoot.Superior			L.Toe			L.Elbow			L.Wrist			R.Elbow			R.Wrist			
		X1	Y1	Z1	X2	Y2	Z2	X3	Y3	Z3	X4	Y4	Z4	X5	Y5	Z5	X6	Y6	Z6	X7	Y7	Z7	X8	Y8	Z8	X9	Y9	Z9	X10	Y10	Z10	X11	Y11	Z11	X12	Y12	Z12	X13	Y13	Z13	X14	Y14	Z14	X15	Y15	Z15	X16	Y16	Z16	X17	Y17	Z17	X18	Y18	Z18	X19	Y19	Z19	X20	Y20	Z20	X21	Y21	Z21	X22	Y22	Z22	X23	Y23	Z23	X24	Y24	Z24	X25	Y25	Z25	X26	Y26	Z26	X27	Y27	Z27	X28	Y28	Z28	X29	Y29	Z29	X30	Y30	Z30	X31	Y31	Z31	X32	Y32	Z32	X33	Y33	Z33	

36	36.162500000000	794.217097570768	1011.811814275484	551.428017368997	929.009060354971	1436.180708356827	343.829907682356	1063.882488994484	1367.963427349267	479.104367155528	1019.093655109345	1439.835582979264	666.081648679293	932.211781963027	1495.830403979500	504.372500536582	1035.057749167737	937.061535521403	626.461507259374	977.149175662025	965.108514573922	360.048672145276	1028.117284963632	723.864078907627	596.055321165634	933.159528902590	627.991393151157	668.620379650545	983.884482018690	564.001482156987	581.526705671721	964.264546222011	477.180452582089	589.507349937224	1042.142409109057	761.880073139367	381.447484185822	957.273639849928	628.068848709525	315.698316593976	1065.440755941725	570.383484459884	367.241999167560	1074.577369644967	500.778032001372	368.002482376204	1052.528479471775	428.448651379366	357.391369432735	967.537748033204	310.236852591654	306.499269588632	1036.921999431851	198.923179791873	361.795945938389	919.885429399546	395.280595915326	599.849161538531	835.321157425784	307.224162298433	670.730195615547	849.588428688534	206.627844422409	603.494964274543	685.302879643706	59.949422269177	584.509521507543	861.919230356325	98.596715734446	611.248832109276	771.800461432723	44.016541402264	653.315966461866	978.300655902137	38.127949782059	631.295367163414	923.194325964165	38.414740638538	401.398320649267	993.265822656077	36.383205970283	317.388856228711	1077.254971177413	98.638393682939	340.053703157845	1203.665324917671	49.129642613186	304.860056327147	795.113608164355	1113.910430648131	239.897280351686	781.370674865447	853.091432696105	268.288542727130	1217.100742346113	1157.756768066388	759.483953122319	1422.817754724525	1247.460172019440	639.861109725452	
37	36.183714285714	794.040873416825	1013.164813285904	544.174165286898	932.711515794404	1437.206352446144	338.355067762395	1065.633941739122	1368.627383456064	475.306806050633	1018.702837048727	1440.663759204021	661.713856451729	933.827869306125	1496.830294399885	499.157424564168	1033.893566425985	937.902539266984	622.017454783391	978.978194282899	965.749398822929	354.948381673790	1026.732502375598	724.638503493383	592.669723893329	931.245926136346	629.444489102938	665.339492136512	982.631181951205	564.652557287716	579.108321318966	963.173655287964	477.558511086614	587.697396851586	1042.201331878495	761.821897282504	377.132481021802	956.578741415738	628.188517574952	311.843248780038	1064.183935448637	570.034944318790	363.955022083376	1072.894864022082	500.310757606972	365.218312525053	1050.436210456744	428.041562079476	355.040762149728	964.891924846540	309.962968103778	305.081844242514	1033.479032245883	198.642650416852	361.110319467401	918.002057344467	396.122900272531	598.302752958360	832.491405493617	309.145012223192	669.344690674792	846.633483395424	207.841924845960	603.093849817540	681.489378697325	62.172638641333	584.615130055908	858.406456245341	98.976077788075	611.308098024668	767.875425063371	45.169412558275	653.392561408078	974.169905721558	37.934502337053	631.372706027741	919.048562331608	38.395390360134	401.461029733694	989.055131582965	36.357727138886	317.395008027874	1073.099421095798	98.508183076708	340.009367843114	1199.513398642361	48.855191070681	304.739967683084	802.997252066815	1113.261990315719	231.794326995680	792.786185551259	852.198442893520	258.718653612855	1210.240354946383	1153.082842086648	756.220965442836	1423.359430613947	1231.658460141769	640.782745523985	
38	36.204928571429	793.951450918666	1014.601069172243	536.606068435313	936.573751935225	1438.447298442281	332.875880607194	1067.392710120924	1369.487340275354	471.581308647117	1018.085495706906	1441.555332135434	657.378141440506	935.376249271503	1497.952741163278	493.972241540586	1032.793968828109	938.919663479720	617.428263286354	981.037555134048	966.531064860263	349.717104745282	1025.697711711752	725.575808439450	589.151561050570	929.822161889460	630.965349336075	661.941220264320	982.019420066799	565.387024064734	576.626823998010	962.876224388170	477.855421982332	585.946491543315	1042.252693209192	761.670494155211	372.632059459927	955.714462246562	628.281736083681	307.869547547401	1062.638317647772	569.589659596184	360.647943135034	1070.828834330359	499.822206784999	362.442947219849	1048.059957650252	427.653062470595	352.672005512418	962.076215517040	309.649154142832	303.623706387126	1029.927700943378	198.370749615422	360.388744530072	916.707071083423	396.987330381736	596.774724515314	830.060577342813	311.260418766903	667.930541669838	844.001506944642	209.194412247925	602.750370785229	677.777848455224	64.714398831073	584.739259803655	855.045024564727	99.356697494011	611.356342586266	764.023062205662	46.461158492196	653.482505067111	970.074115259865	37.755215145010	631.446181201385	914.881107922986	38.402140091636	401.524179474098	984.825886769633	36.336167262625	317.412454846817	1068.961053974173	98.337415157613	339.969047331893	1195.365820475338	48.432143264201	304.629850441551	812.021070302596	1112.495340622715	223.607163879432	805.568922630506	851.235494331491	248.849339248017	1202.043017342191	1147.773255358746	752.865775558426	1422.500810629967	1213.127946086499	642.207843453348	
39	36.226142857143	793.948926571417	1016.051027154931	528.748337897324	940.540785705068	1439.847872077821	327.423917037244	1069.113193896952	1370.489379494732	467.938350559921	1017.211942954808	1442.437782826148	653.087469203096	936.816917182357	1499.137150676267	488.836997122902	1031.745620636043	940.055199525443	612.693320501825	983.305413774351	967.416721387715	344.371838527198	1025.098859122498	726.624424126404	585.500705225912	929.018599105030	632.464138105502	658.419054531996	982.217021187860	566.143694802361	574.077030748213	963.551314087194	477.989268183943	584.263507675717	1042.384384760605	761.450601934551	368.017385514667	954.893486894707	628.342403114510	303.780626127184	1061.018197454574	569.077337222139	357.358221849777	1068.616527852340	499.307019536260	359.695446247111	1045.594159870907	427.262171802922	350.301530208799	959.243946047961	309.312314787175	302.096636334140	1026.348865329251	198.097049650527	359.642744459219	916.152272272535	397.801321855487	595.268229081278	828.154233210017	313.539051553347	666.484536182882	841.772287552748	210.654669941159	602.464767933931	674.203612224414	67.603261128425	584.890750418003	851.866214261785	99.730807125764	611.401359390194	760.262251820722	47.906545886744	653.589999078079	966.016793023499	37.598454309808	631.513481386048	910.696562260603	38.434501659047	401.578767576869	980.586396360999	36.322009732451	317.434422653490	1064.840629521001	98.140824510546	339.933535090261	1191.227716128286	47.888948091557	304.532493545127	822.220474062004	1111.589358599047	215.389598098243	819.769383732613	850.190348446242	238.784245757707	1192.503092901154	1141.910406561276	749.468079952503	1419.833671001692	1191.753420696283	644.148432660948	
40	36.247357142857	794.020940632823	1017.420065924625	520.630474345919	944.555187775157	1441.323529029090	322.031873899816	1070.748400137843	1371.548054176308	464.388850141864	1016.058390709270	1443.212705559004	648.855148312824	938.115263693933	1500.298344342330	483.769199394241	1030.723282067521	941.222998204206	607.813331669838	985.747986396064	968.345376460439	338.928601644097	1025.023914981726	727.717019563678	581.718675083410	928.968887222095	633.831768521361	654.764249984299	983.398547991441	566.848026237334	571.452507549673	965.376507173010	477.873514912962	582.646843296673	1042.688509347537	761.180885968615	363.356516576162	954.333893772520	628.350103053406	299.583685136756	1059.558328618072	568.521320306646	354.107835190231	1066.523133742384	498.749604089471	356.983600739433	1043.253589940360	426.832440734887	347.939568127058	956.558811803711	308.958459002314	300.478245028863	1022.830555422279	197.803908898053	358.884673716417	916.498688930565	398.481599112636	593.779099947852	826.917097740475	315.941691701285	665.001124111795	840.035023277723	212.189035361126	602.231852831928	670.815430650913	70.885799608918	585.082656659351	848.909580711883	100.101798594817	611.460608256814	756.618803560722	49.536794876951	653.721286935062	961.999416131614	37.467488099489	631.571949061351	906.500150520425	38.488340805588	401.618119181342	976.344686396180	36.316106717597	317.454427282737	1060.737033633619	97.931894021120	339.904238470500	1187.102550589723	47.260488916031	304.450051392418	833.606497829531	1110.522482894137	207.188367175119	835.425308133668	849.051103285025	228.649071618693	1181.666473189644	1135.587730091183	746.077466276060	1414.934021738014	1167.534277792568	646.622212680710	
